
<svg viewBox="0 0 720 900" xmlns="http://www.w3.org/2000/svg" font-family="sans-serif">
  <defs>
    <marker id="arr" markerWidth="8" markerHeight="8" refX="6" refY="3" orient="auto">
      <path d="M0,0 L0,6 L8,3 z" fill="#D4537E"/>
    </marker>
  </defs>

  <!-- Background -->
  <rect width="720" height="900" fill="#FDF6FB" rx="16"/>

  <!-- Title -->
  <text x="360" y="44" text-anchor="middle" font-size="22" font-weight="500" fill="#993556">Bloom — App Overview</text>
  <text x="360" y="64" text-anchor="middle" font-size="13" fill="#D4537E">your daily companion, designed for women</text>

  <!-- Row 1: Splash + Home -->
  <!-- Splash Screen -->
  <rect x="40" y="85" width="140" height="210" rx="16" fill="#F4C0D1" stroke="#ED93B1" stroke-width="1"/>
  <text x="110" y="108" text-anchor="middle" font-size="11" fill="#72243E" font-weight="500">Splash Screen</text>
  <!-- flower character -->
  <circle cx="110" cy="148" r="22" fill="#FAEEDA" stroke="#EF9F27" stroke-width="1.5"/>
  <circle cx="103" cy="143" r="2.5" fill="#993556"/>
  <circle cx="117" cy="143" r="2.5" fill="#993556"/>
  <path d="M103,155 Q110,162 117,155" stroke="#993556" stroke-width="1.5" fill="none" stroke-linecap="round"/>
  <!-- petals -->
  <ellipse cx="110" cy="122" rx="6" ry="9" fill="#F4C0D1" opacity="0.9"/>
  <ellipse cx="132" cy="130" rx="9" ry="6" fill="#F4C0D1" opacity="0.9"/>
  <ellipse cx="88" cy="130" rx="9" ry="6" fill="#F4C0D1" opacity="0.9"/>
  <ellipse cx="110" cy="172" rx="6" ry="9" fill="#F4C0D1" opacity="0.9"/>
  <!-- quote box -->
  <rect x="52" y="183" width="116" height="50" rx="8" fill="#FBEAF0" stroke="#F4C0D1" stroke-width="0.5"/>
  <text x="110" y="199" text-anchor="middle" font-size="9" fill="#72243E" font-style="italic">"She believed she could,</text>
  <text x="110" y="210" text-anchor="middle" font-size="9" fill="#72243E" font-style="italic">so she did."</text>
  <text x="110" y="224" text-anchor="middle" font-size="9" fill="#D4537E">— daily quote</text>
  <text x="110" y="244" text-anchor="middle" font-size="9" fill="#993556">tap to enter ✦</text>
  <text x="110" y="280" text-anchor="middle" font-size="10" fill="#72243E" font-weight="500">Motivational splash</text>
  <text x="110" y="294" text-anchor="middle" font-size="9" fill="#993556">+ cute mascot every day</text>

  <!-- Home Dashboard -->
  <rect x="200" y="85" width="160" height="210" rx="16" fill="#EEEDFE" stroke="#AFA9EC" stroke-width="1"/>
  <text x="280" y="108" text-anchor="middle" font-size="11" fill="#3C3489" font-weight="500">Home Dashboard</text>
  <!-- greeting -->
  <rect x="212" y="115" width="136" height="22" rx="6" fill="#CECBF6"/>
  <text x="280" y="130" text-anchor="middle" font-size="9" fill="#26215C">Good morning, gorgeous ✦</text>
  <!-- today tasks -->
  <rect x="212" y="142" width="136" height="56" rx="6" fill="#F1EFE8" stroke="#D3D1C7" stroke-width="0.5"/>
  <text x="220" y="155" font-size="9" fill="#444441" font-weight="500">Today's plan</text>
  <circle cx="220" cy="164" r="3" fill="#D4537E"/>
  <text x="228" y="167" font-size="8" fill="#5F5E5A">Morning yoga  ✓</text>
  <circle cx="220" cy="175" r="3" fill="#AFA9EC"/>
  <text x="228" y="178" font-size="8" fill="#5F5E5A">Study biology</text>
  <circle cx="220" cy="186" r="3" fill="#AFA9EC"/>
  <text x="228" y="189" font-size="8" fill="#5F5E5A">Journal entry</text>
  <!-- mini music bar -->
  <rect x="212" y="204" width="136" height="24" rx="6" fill="#EAF3DE" stroke="#C0DD97" stroke-width="0.5"/>
  <text x="220" y="218" font-size="8" fill="#3B6D11">♪  Spotify — Lo-fi Chill Mix</text>
  <text x="340" y="218" text-anchor="end" font-size="8" fill="#639922">▶</text>
  <!-- reward badge -->
  <rect x="212" y="233" width="60" height="16" rx="6" fill="#FAEEDA"/>
  <text x="242" y="244" text-anchor="middle" font-size="8" fill="#854F0B">✦ 3 streak</text>
  <text x="280" y="280" text-anchor="middle" font-size="10" fill="#3C3489" font-weight="500">Daily command centre</text>
  <text x="280" y="294" text-anchor="middle" font-size="9" fill="#534AB7">planner + music + rewards</text>

  <!-- Monthly Planner -->
  <rect x="380" y="85" width="145" height="210" rx="16" fill="#E1F5EE" stroke="#5DCAA5" stroke-width="1"/>
  <text x="452" y="108" text-anchor="middle" font-size="11" fill="#085041" font-weight="500">Monthly Planner</text>
  <!-- mini calendar -->
  <rect x="392" y="116" width="121" height="90" rx="6" fill="#FBEAF0" stroke="#F4C0D1" stroke-width="0.5"/>
  <text x="452" y="129" text-anchor="middle" font-size="9" fill="#72243E" font-weight="500">March 2026</text>
  <!-- calendar grid simplified -->
  <line x1="392" y1="134" x2="513" y2="134" stroke="#F4C0D1" stroke-width="0.5"/>
  <text x="403" y="145" font-size="8" fill="#993556">M T W T F S S</text>
  <text x="403" y="157" font-size="8" fill="#5F5E5A">             1</text>
  <text x="403" y="169" font-size="8" fill="#5F5E5A">2 3 4 5 6 7 8</text>
  <!-- highlight a day -->
  <circle cx="430" cy="180" r="6" fill="#D4537E"/>
  <text x="430" y="183" text-anchor="middle" font-size="8" fill="#FBEAF0">13</text>
  <text x="452" y="183" font-size="8" fill="#5F5E5A"> 14 15 16 17</text>
  <!-- sticky note preview -->
  <rect x="392" y="212" width="56" height="36" rx="4" fill="#FAC775" opacity="0.9"/>
  <text x="420" y="225" text-anchor="middle" font-size="8" fill="#633806">Study date!</text>
  <text x="420" y="237" text-anchor="middle" font-size="7" fill="#854F0B">w/ bestie 🌸</text>
  <!-- sticker -->
  <rect x="455" y="212" width="56" height="36" rx="4" fill="#CECBF6"/>
  <text x="483" y="229" text-anchor="middle" font-size="18">✦</text>
  <text x="452" y="278" text-anchor="middle" font-size="10" fill="#085041" font-weight="500">Calendar + sticky notes</text>
  <text x="452" y="292" text-anchor="middle" font-size="9" fill="#0F6E56">stickers + highlights</text>

  <!-- Separator line -->
  <line x1="40" y1="310" x2="680" y2="310" stroke="#F4C0D1" stroke-width="0.5" stroke-dasharray="4,4"/>

  <!-- Row 2 -->
  <!-- Journal -->
  <rect x="40" y="325" width="140" height="200" rx="16" fill="#FBEAF0" stroke="#ED93B1" stroke-width="1"/>
  <text x="110" y="348" text-anchor="middle" font-size="11" fill="#72243E" font-weight="500">Journal + Diary</text>
  <rect x="52" y="358" width="116" height="100" rx="6" fill="#fff" stroke="#F4C0D1" stroke-width="0.5"/>
  <!-- lined paper effect -->
  <line x1="52" y1="373" x2="168" y2="373" stroke="#F4C0D1" stroke-width="0.4"/>
  <line x1="52" y1="385" x2="168" y2="385" stroke="#F4C0D1" stroke-width="0.4"/>
  <line x1="52" y1="397" x2="168" y2="397" stroke="#F4C0D1" stroke-width="0.4"/>
  <line x1="52" y1="409" x2="168" y2="409" stroke="#F4C0D1" stroke-width="0.4"/>
  <line x1="52" y1="421" x2="168" y2="421" stroke="#F4C0D1" stroke-width="0.4"/>
  <text x="60" y="370" font-size="8" fill="#993556" font-style="italic">Today I felt...</text>
  <text x="60" y="382" font-size="8" fill="#5F5E5A" font-style="italic">grateful for morning sun</text>
  <text x="60" y="394" font-size="8" fill="#5F5E5A" font-style="italic">and my warm coffee ♡</text>
  <!-- highlighter stroke -->
  <rect x="55" y="386" width="88" height="9" rx="2" fill="#FAC775" opacity="0.4"/>
  <!-- sticker on page -->
  <text x="148" y="380" font-size="14">✦</text>
  <!-- tools row -->
  <rect x="52" y="464" width="20" height="14" rx="3" fill="#FAC775"/>
  <text x="62" y="474" text-anchor="middle" font-size="7" fill="#633806">hi-lite</text>
  <rect x="76" y="464" width="20" height="14" rx="3" fill="#CECBF6"/>
  <text x="86" y="474" text-anchor="middle" font-size="7" fill="#3C3489">note</text>
  <rect x="100" y="464" width="20" height="14" rx="3" fill="#9FE1CB"/>
  <text x="110" y="474" text-anchor="middle" font-size="7" fill="#085041">stick</text>
  <rect x="124" y="464" width="20" height="14" rx="3" fill="#F5C4B3"/>
  <text x="134" y="474" text-anchor="middle" font-size="7" fill="#712B13">draw</text>
  <text x="110" y="504" text-anchor="middle" font-size="10" fill="#72243E" font-weight="500">Daily journal + diary</text>
  <text x="110" y="518" text-anchor="middle" font-size="9" fill="#993556">tools: highlighter, stickers</text>

  <!-- Study Timer -->
  <rect x="200" y="325" width="160" height="200" rx="16" fill="#EEEDFE" stroke="#AFA9EC" stroke-width="1"/>
  <text x="280" y="348" text-anchor="middle" font-size="11" fill="#3C3489" font-weight="500">Study Timer + Pomodoro</text>
  <!-- cute timer character -->
  <circle cx="280" cy="395" r="30" fill="#FAEEDA" stroke="#EF9F27" stroke-width="1.5"/>
  <!-- face -->
  <circle cx="272" cy="390" r="2.5" fill="#854F0B"/>
  <circle cx="288" cy="390" r="2.5" fill="#854F0B"/>
  <path d="M272,400 Q280,407 288,400" stroke="#854F0B" stroke-width="1.5" fill="none" stroke-linecap="round"/>
  <!-- tiny bow -->
  <path d="M271,375 Q276,370 281,375 Q276,380 271,375z" fill="#D4537E"/>
  <path d="M281,375 Q286,370 291,375 Q286,380 281,375z" fill="#D4537E"/>
  <circle cx="281" cy="375" r="2" fill="#993556"/>
  <!-- timer ring -->
  <circle cx="280" cy="395" r="36" fill="none" stroke="#CECBF6" stroke-width="4"/>
  <circle cx="280" cy="395" r="36" fill="none" stroke="#7F77DD" stroke-width="4" stroke-dasharray="150 76" stroke-dashoffset="30"/>
  <!-- timer text -->
  <text x="280" y="445" text-anchor="middle" font-size="13" font-weight="500" fill="#534AB7">25:00</text>
  <text x="280" y="460" text-anchor="middle" font-size="9" fill="#7F77DD">focus session</text>
  <!-- pomodoro dots -->
  <circle cx="256" cy="472" r="5" fill="#D4537E"/>
  <circle cx="268" cy="472" r="5" fill="#D4537E"/>
  <circle cx="280" cy="472" r="5" fill="#AFA9EC"/>
  <circle cx="292" cy="472" r="5" fill="#AFA9EC"/>
  <text x="280" y="504" text-anchor="middle" font-size="10" fill="#3C3489" font-weight="500">Cute mascot timer</text>
  <text x="280" y="518" text-anchor="middle" font-size="9" fill="#534AB7">pomodoro / custom sessions</text>

  <!-- Rewards + Themes -->
  <rect x="380" y="325" width="145" height="200" rx="16" fill="#FAEEDA" stroke="#FAC775" stroke-width="1"/>
  <text x="452" y="348" text-anchor="middle" font-size="11" fill="#633806" font-weight="500">Rewards + Themes</text>
  <!-- reward stars -->
  <text x="420" y="380" font-size="20" fill="#EF9F27">✦</text>
  <text x="442" y="380" font-size="20" fill="#D4537E">✦</text>
  <text x="464" y="380" font-size="20" fill="#7F77DD">✦</text>
  <text x="452" y="398" text-anchor="middle" font-size="9" fill="#854F0B">complete tasks → earn stars</text>
  <!-- unlockable themes -->
  <rect x="392" y="406" width="121" height="14" rx="4" fill="#FBEAF0"/>
  <text x="452" y="416" text-anchor="middle" font-size="8" fill="#993556">✦ Sakura theme  — unlocked</text>
  <rect x="392" y="424" width="121" height="14" rx="4" fill="#EEEDFE"/>
  <text x="452" y="434" text-anchor="middle" font-size="8" fill="#534AB7">✦ Galaxy Pastel — 10 tasks</text>
  <rect x="392" y="442" width="121" height="14" rx="4" fill="#E1F5EE"/>
  <text x="452" y="452" text-anchor="middle" font-size="8" fill="#085041">✦ Mint Dream   — 25 tasks</text>
  <rect x="392" y="460" width="121" height="14" rx="4" fill="#F1EFE8"/>
  <text x="452" y="470" text-anchor="middle" font-size="8" fill="#444441">✦ New stickers  — 5 streak</text>
  <!-- progress bar -->
  <rect x="392" y="480" width="121" height="8" rx="4" fill="#F5C4B3"/>
  <rect x="392" y="480" width="72" height="8" rx="4" fill="#D4537E"/>
  <text x="452" y="504" text-anchor="middle" font-size="10" fill="#633806" font-weight="500">Unlock themes + features</text>
  <text x="452" y="518" text-anchor="middle" font-size="9" fill="#854F0B">by completing tasks</text>

  <!-- Separator -->
  <line x1="40" y1="535" x2="680" y2="535" stroke="#AFA9EC" stroke-width="0.5" stroke-dasharray="4,4"/>

  <!-- Feature Pills Row -->
  <text x="360" y="558" text-anchor="middle" font-size="13" font-weight="500" fill="#72243E">Core Features</text>

  <!-- Pills -->
  <rect x="48" y="568" width="90" height="22" rx="11" fill="#F4C0D1"/>
  <text x="93" y="583" text-anchor="middle" font-size="9" fill="#72243E">Spotify integration</text>

  <rect x="146" y="568" width="76" height="22" rx="11" fill="#CECBF6"/>
  <text x="184" y="583" text-anchor="middle" font-size="9" fill="#3C3489">Sticky notes</text>

  <rect x="230" y="568" width="64" height="22" rx="11" fill="#9FE1CB"/>
  <text x="262" y="583" text-anchor="middle" font-size="9" fill="#085041">Highlighter</text>

  <rect x="302" y="568" width="58" height="22" rx="11" fill="#FAEEDA"/>
  <text x="331" y="583" text-anchor="middle" font-size="9" fill="#633806">Stickers</text>

  <rect x="368" y="568" width="70" height="22" rx="11" fill="#FBEAF0"/>
  <text x="403" y="583" text-anchor="middle" font-size="9" fill="#993556">Pomodoro</text>

  <rect x="446" y="568" width="62" height="22" rx="11" fill="#EAF3DE"/>
  <text x="477" y="583" text-anchor="middle" font-size="9" fill="#3B6D11">Daily quotes</text>

  <rect x="516" y="568" width="70" height="22" rx="11" fill="#EEEDFE"/>
  <text x="551" y="583" text-anchor="middle" font-size="9" fill="#3C3489">Study notes</text>

  <rect x="594" y="568" width="68" height="22" rx="11" fill="#FAC775"/>
  <text x="628" y="583" text-anchor="middle" font-size="9" fill="#633806">Mood tracker</text>

  <!-- Pastel row 2 -->
  <rect x="84" y="598" width="76" height="22" rx="11" fill="#ED93B1"/>
  <text x="122" y="613" text-anchor="middle" font-size="9" fill="#4B1528">Dark/light mode</text>

  <rect x="168" y="598" width="78" height="22" rx="11" fill="#FAEEDA"/>
  <text x="207" y="613" text-anchor="middle" font-size="9" fill="#854F0B">Habit tracker</text>

  <rect x="254" y="598" width="80" height="22" rx="11" fill="#CECBF6"/>
  <text x="294" y="613" text-anchor="middle" font-size="9" fill="#26215C">Weekly review</text>

  <rect x="342" y="598" width="80" height="22" rx="11" fill="#9FE1CB"/>
  <text x="382" y="613" text-anchor="middle" font-size="9" fill="#04342C">Password lock</text>

  <rect x="430" y="598" width="88" height="22" rx="11" fill="#F5C4B3"/>
  <text x="474" y="613" text-anchor="middle" font-size="9" fill="#4A1B0C">Drawing canvas</text>

  <rect x="526" y="598" width="78" height="22" rx="11" fill="#AFA9EC"/>
  <text x="565" y="613" text-anchor="middle" font-size="9" fill="#26215C">Custom widgets</text>

  <!-- Footer -->
  <rect x="40" y="640" width="640" height="60" rx="12" fill="#F4C0D1" opacity="0.4"/>
  <text x="360" y="663" text-anchor="middle" font-size="12" font-weight="500" fill="#72243E">Bloom — created by women, for women</text>
  <text x="360" y="680" text-anchor="middle" font-size="10" fill="#993556">pastel  ✦  cute  ✦  productive  ✦  rewarding  ✦  personal</text>

  <!-- bottom mascot row -->
  <circle cx="90" cy="750" r="18" fill="#FAEEDA" stroke="#EF9F27" stroke-width="1"/>
  <circle cx="84" cy="746" r="2" fill="#854F0B"/>
  <circle cx="96" cy="746" r="2" fill="#854F0B"/>
  <path d="M84,755 Q90,760 96,755" stroke="#854F0B" stroke-width="1.2" fill="none" stroke-linecap="round"/>
  <path d="M82,735 Q87,729 92,735 Q87,741 82,735z" fill="#D4537E"/>
  <path d="M88,735 Q93,729 98,735 Q93,741 88,735z" fill="#D4537E"/>
  <circle cx="90" cy="735" r="1.5" fill="#993556"/>

  <circle cx="360" cy="750" r="18" fill="#FAEEDA" stroke="#EF9F27" stroke-width="1"/>
  <circle cx="354" cy="746" r="2" fill="#854F0B"/>
  <circle cx="366" cy="746" r="2" fill="#854F0B"/>
  <path d="M354,755 Q360,762 366,755" stroke="#854F0B" stroke-width="1.2" fill="none" stroke-linecap="round"/>
  <path d="M352,735 Q357,729 362,735 Q357,741 352,735z" fill="#7F77DD"/>
  <path d="M358,735 Q363,729 368,735 Q363,741 358,735z" fill="#7F77DD"/>
  <circle cx="360" cy="735" r="1.5" fill="#534AB7"/>

  <circle cx="630" cy="750" r="18" fill="#FAEEDA" stroke="#EF9F27" stroke-width="1"/>
  <circle cx="624" cy="746" r="2" fill="#854F0B"/>
  <circle cx="636" cy="746" r="2" fill="#854F0B"/>
  <path d="M624,755 Q630,760 636,755" stroke="#854F0B" stroke-width="1.2" fill="none" stroke-linecap="round"/>
  <path d="M622,735 Q627,729 632,735 Q627,741 622,735z" fill="#9FE1CB"/>
  <path d="M628,735 Q633,729 638,735 Q633,741 628,735z" fill="#9FE1CB"/>
  <circle cx="630" cy="735" r="1.5" fill="#085041"/>

  <text x="360" y="790" text-anchor="middle" font-size="11" fill="#D4537E">✦ your cute mascots change with each theme you unlock ✦</text>
</svg>
